<svg width="22" height="22" viewBox="0 0 22 22" fill="none" xmlns="http://www.w3.org/2000/svg">
    <path d="M2.292 11c0-4.105 0-6.158 1.275-7.433C4.842 2.292 6.895 2.292 11 2.292s6.158 0 7.433 1.275c1.275 1.275 1.275 3.328 1.275 7.433s0 6.158-1.275 7.433c-1.275 1.275-3.328 1.275-7.433 1.275s-6.158 0-7.433-1.275C2.292 17.158 2.292 15.105 2.292 11z" stroke="#98A2B3" stroke-width="1.8" stroke-linecap="round" stroke-linejoin="round"/>
    <path d="M19.708 12.375h-4.515c-.772 0-1.378.645-1.719 1.326-.37.741-1.11 1.424-2.474 1.424-1.365 0-2.105-.683-2.475-1.424-.34-.681-.946-1.326-1.718-1.326H2.292" stroke="#98A2B3" stroke-width="1.8" stroke-linejoin="round"/>
</svg>
